# xmcd
#
# Track frame offsets:
#	150
#	11613
#	25500
#	36870
#	50727
#	62610
#	77734
#	88472
#	102445
#	120513
#	138721
#	148513
#	165688
#	179278
#	194496
#	208402
#	223337
#	238595
#	248936
#	261401
#	275575
#	290190
#
# Disc length: 4054 seconds
#
# Revision: 0
# Processed by: cddbd v1.5.2PL0 Copyright (c) Steve Scherf et al.
# Submitted via: EasyCDDAExtractor 16.0.1.1
#
DISCID=620fd416
DTITLE=Waylon Jennings and Willie Nelson - Waylon and Willie +Waylon and Willie II
DYEAR=1900
DGENRE=Country
TTITLE0=Waylon Jennings and Willie Nelson - Mammas Don't Let Your Babies Grow Up
TTITLE0=to Be Cowboys
TTITLE1=Waylon Jennings and Willie Nelson - The Year 2003 Minus 25
TTITLE2=Waylon Jennings and Willie Nelson - Pick Up the Tempo
TTITLE3=Waylon Jennings and Willie Nelson - If You Can Touch Her at All
TTITLE4=Waylon Jennings and Willie Nelson - Lookin' for a Feeling
TTITLE5=Waylon Jennings and Willie Nelson - It's Not Supposed to Be That Way
TTITLE6=Waylon Jennings and Willie Nelson - I Can Get Off on You
TTITLE7=Waylon Jennings and Willie Nelson - Don't Cuss the Fiddle
TTITLE8=Waylon Jennings and Willie Nelson - Gold Dust Woman
TTITLE9=Waylon Jennings and Willie Nelson - A Couple More Years
TTITLE10=Waylon Jennings and Willie Nelson - The Wurlitzer Prize (I Don't Want t
TTITLE10=o Get Over You)
TTITLE11=Waylon Jennings and Willie Nelson - Mr  Shuck And Jive
TTITLE12=Waylon Jennings - Roman Candles
TTITLE13=Waylon Jennings and Willie Nelson - (Sittin' On) The Dock Of The Bay
TTITLE14=Waylon Jennings and Willie Nelson - The Year That Clayton Delaney Died
TTITLE15=Waylon Jennings - Lady In The Harbour
TTITLE16=Waylon Jennings and Willie Nelson - May I Borrow Some Sugar From You
TTITLE17=Waylon Jennings - Last Cowboy Sng
TTITLE18=Waylon Jennings and Willie Nelson - Heroes
TTITLE19=Waylon Jennings - The Teddy Bear Song
TTITLE20=Waylon Jennings and Willie Nelson - Write Your Own Songs
TTITLE21=Waylon Jennings - This Old Mother's Locket Trick
EXTD=
EXTT0=
EXTT1=
EXTT2=
EXTT3=
EXTT4=
EXTT5=
EXTT6=
EXTT7=
EXTT8=
EXTT9=
EXTT10=
EXTT11=
EXTT12=
EXTT13=
EXTT14=
EXTT15=
EXTT16=
EXTT17=
EXTT18=
EXTT19=
EXTT20=
EXTT21=
PLAYORDER=
